<?xml version="1.0" encoding="UTF-8"?>
<svg xmlns="http://www.w3.org/2000/svg" xmlns:xlink="http://www.w3.org/1999/xlink" viewBox="0 0 1000 1000">
  <defs>
    <style>
      .cls-1 {
        fill: #fff;
      }

      .cls-2 {
        fill: #022859;
      }

      .cls-3 {
        fill: url(#radial-gradient);
      }
    </style>
    <radialGradient id="radial-gradient" cx="500" cy="500" fx="500" fy="500" r="500" gradientUnits="userSpaceOnUse">
      <stop offset="0" stop-color="#00060d"/>
      <stop offset="1" stop-color="#011126"/>
    </radialGradient>
  </defs>
  <rect id="background" class="cls-3" width="1000" height="1000" rx="175" ry="175"/>
  <g id="logo">
    <path id="infinity" class="cls-2" d="m908.08,280.62c-3.23-30.25-16.23-57.67-38.64-81.51-14.29-15.2-31.81-27.47-56.81-39.8-14.99-7.39-31.27-12.79-48.38-16.04-19.33-3.67-40.25-7.11-62.24-7.36-23.75-.28-44.65,2.62-63.85,8.85-1.95.63-3.79,1.35-5.28,1.93-3.24,1.27-5.07,3.41-5.8,4.33-2.29,2.68-3.4,6.18-3.06,9.71.37,3.74,2.33,7.15,5.4,9.33,3.41,2.43,7.42,3.28,11.94,2.56h.03c9.73-1.06,19.85-1.07,30.09-.01,46.17,4.75,83.79,18.73,114.98,42.75,20.77,15.99,33.95,32.32,41.48,51.4,13.91,35.27,9.45,67.77-13.65,99.37-13.83,18.92-32.43,33.18-47.08,43.49-38.68,27.21-82.54,42.29-116.42,52.38-11.86,3.53-24.65,6.83-40.24,10.36-19.93,4.52-40.34,8.71-60.09,12.77-11.41,2.35-23.12,4.75-34.81,7.24-1.78-38.4-5.1-75.82-7.87-104.85-2.72-28.43-6.92-53.26-12.84-75.93-.3-1.14-.62-2.27-.94-3.4l-.39-1.4c-1.52-5.44-6.37-9.28-12.02-9.5-5.64-.21-10.78,3.23-12.72,8.53-4.28,11.73-7.38,23.15-9.48,34.91-.4,2.22-.8,4.45-1.2,6.67-3.23,17.91-6.58,36.43-7.32,55.35-.38,9.6-.79,19.21-1.21,28.81-.51,11.85-1.04,24.11-1.49,36.19-.29,7.92-.67,16.01-1.03,23.82-.23,4.88-.46,9.87-.67,14.87-28.17,6.23-63.69,13.91-99.78,20.84-36.63,7.03-73.51,14.81-105.2,21.55-15.44,3.29-33.56,7.66-50.84,15.18l-.72.31c-17.43,7.59-35.44,15.43-51.22,28.82-24.48,20.77-39.49,47.05-44.62,78.12-2.28,13.83-4.37,30.25-2.49,47.07,3.21,28.72,13.1,56.19,29.4,81.64,16.42,25.64,37.28,48.02,61.99,66.52,30.81,23.07,66.27,37.6,108.4,44.42,14.79,2.39,28.78,3.59,42.17,3.59,14.35,0,27.99-1.38,41.14-4.13,35.41-7.41,64.51-26.08,86.5-55.49,27.72-37.07,43.52-79.51,48.3-129.74,6.6-69.34,9.12-131.63,7.67-190.15,40.34-7.68,79.39-16.04,109.29-22.55l5.45-1.19c34.09-7.41,69.34-15.08,103.48-26.03,41.7-13.38,75.57-30.2,103.56-51.44,35.12-26.64,57.62-61.15,66.89-102.55,3.49-15.6,4.23-32.15,2.26-50.61ZM311.55,866.02c-45.07-1.22-85.99-17.25-121.61-47.64-.5-.49-.94-.93-1.36-1.34-1.09-1.08-1.98-1.96-2.9-2.81-16.46-15.32-29.35-33.01-38.31-52.58-13.97-30.51-16.51-59.5-7.76-88.64,6.29-20.94,16.14-36.5,30.13-47.57,13.71-10.86,29.86-18.02,43.85-23.59,11.56-4.61,23.62-7.57,36.39-10.7l.36-.09c17.05-4.18,58.87-12.24,92.48-18.71,20.74-3.99,38.65-7.44,45.6-9,17.56-3.94,36.04-8.16,56.15-12.83-.81,17.69-1.6,35.39-2.39,53.08-.69,15.54-1.39,31.08-2.09,46.63-1.34,29.49-3.08,60.82-8.28,91.2-2.57,14.98-5.05,28.41-9.47,41.06-8.06,23.06-20.74,43.23-37.67,59.95-10.34,10.21-21.07,16.54-32.78,19.33-13.3,3.18-26.87,4.61-40.32,4.24Z"/>
    <path id="star" class="cls-1" d="m606.89,86.12c-92.64,70.38-100.06,124.72-29.76,217.15-70.38-92.64-124.72-100.06-217.15-29.76,92.64-70.38,100.06-124.72,29.76-217.15,70.38,92.64,124.72,100.06,217.15,29.76Z"/>
  </g>
</svg>