<?xml version="1.0" encoding="UTF-8"?>
<svg xmlns="http://www.w3.org/2000/svg" xmlns:xlink="http://www.w3.org/1999/xlink" viewBox="0 0 50 50">
  <defs>
    <style>
      .cls-1, .cls-2 {
        fill: none;
      }

      .cls-3 {
        fill: #fff;
      }

      .cls-4 {
        fill: url(#radial-gradient-3);
      }

      .cls-5 {
        fill: url(#radial-gradient-2);
      }

      .cls-6 {
        fill: url(#radial-gradient);
      }

      .cls-2 {
        clip-path: url(#clippath);
      }
    </style>
    <clipPath id="clippath">
      <polygon id="mask" class="cls-1" points="37.5 3.35 12.5 3.35 0 25 12.5 46.65 37.5 46.65 50 25 37.5 3.35"/>
    </clipPath>
    <radialGradient id="radial-gradient" cx="25" cy="3.35" fx="25" fy="3.35" r="8" gradientUnits="userSpaceOnUse">
      <stop offset="0" stop-color="#fff" stop-opacity=".15"/>
      <stop offset="1" stop-color="#fff" stop-opacity="0"/>
    </radialGradient>
    <radialGradient id="radial-gradient-2" cx="6.25" cy="35.82" fx="6.25" fy="35.82" r="8" xlink:href="#radial-gradient"/>
    <radialGradient id="radial-gradient-3" cx="43.75" cy="14.17" fx="43.75" fy="14.17" r="8" xlink:href="#radial-gradient"/>
  </defs>
  <g id="_110010" data-name="110010">
    <g class="cls-2">
      <g id="star">
        <path class="cls-3" d="m29.8,8.15c-3.6-3.6-6-3.6-9.6,0,3.6-3.6,3.6-6,0-9.6,3.6,3.6,6,3.6,9.6,0-3.6,3.6-3.6,6,0,9.6Z"/>
        <circle class="cls-6" cx="25" cy="3.35" r="8"/>
      </g>
      <g id="star-2" data-name="star">
        <path class="cls-3" d="m4.49,42.38c1.32-4.92.12-7-4.8-8.31,4.92,1.32,7,.12,8.31-4.8-1.32,4.92-.12,7,4.8,8.31-4.92-1.32-7-.12-8.31,4.8Z"/>
        <circle class="cls-5" cx="6.25" cy="35.82" r="8"/>
      </g>
      <g id="star-3" data-name="star">
        <path class="cls-3" d="m41.99,20.73c1.32-4.92.12-7-4.8-8.31,4.92,1.32,7,.12,8.31-4.8-1.32,4.92-.12,7,4.8,8.31-4.92-1.32-7-.12-8.31,4.8Z"/>
        <circle class="cls-4" cx="43.75" cy="14.17" r="8"/>
      </g>
    </g>
  </g>
</svg>