<?xml version="1.0" encoding="UTF-8"?>
<svg xmlns="http://www.w3.org/2000/svg" xmlns:xlink="http://www.w3.org/1999/xlink" viewBox="0 0 50 50">
  <defs>
    <style>
      .cls-1, .cls-2 {
        fill: none;
      }

      .cls-3 {
        fill: #fff;
      }

      .cls-4 {
        fill: #022859;
      }

      .cls-5 {
        fill: url(#radial-gradient-3);
      }

      .cls-6 {
        fill: url(#radial-gradient-2);
      }

      .cls-7 {
        fill: url(#radial-gradient);
      }

      .cls-2 {
        clip-path: url(#clippath);
      }
    </style>
    <clipPath id="clippath">
      <polygon id="mask" class="cls-1" points="37.5 3.35 12.5 3.35 0 25 12.5 46.65 37.5 46.65 50 25 37.5 3.35"/>
    </clipPath>
    <radialGradient id="radial-gradient" cx="33.97" cy="20.01" fx="33.97" fy="20.01" r="15.8" gradientUnits="userSpaceOnUse">
      <stop offset="0" stop-color="#fff" stop-opacity="0"/>
      <stop offset=".77" stop-color="#fff" stop-opacity=".04"/>
      <stop offset="1" stop-color="#fff" stop-opacity=".05"/>
    </radialGradient>
    <radialGradient id="radial-gradient-2" cx="-1095" cy="563.35" fx="-1095" fy="563.35" r="8" gradientTransform="translate(-1070 610) rotate(-180)" gradientUnits="userSpaceOnUse">
      <stop offset="0" stop-color="#fff" stop-opacity=".15"/>
      <stop offset="1" stop-color="#fff" stop-opacity="0"/>
    </radialGradient>
    <radialGradient id="radial-gradient-3" cx="-1076.25" cy="595.82" fx="-1076.25" fy="595.82" r="8" xlink:href="#radial-gradient-2"/>
  </defs>
  <g id="_202101" data-name="202101">
    <g class="cls-2">
      <path id="stripe" class="cls-4" d="m44.25,34.96l-1,1.73C30.42,31.62,21.96,16.98,24,3.34h2c1.76,12.57,8.29,23.79,18.25,31.62Z"/>
      <path id="glow" class="cls-7" d="m45.48,33.39c-9.6-7.56-15.82-18.32-17.5-30.32-.14-.99-.98-1.73-1.98-1.73q-2.55,0-3.03.29c-.51.31-.86.83-.95,1.42-2.17,14.51,6.83,30.1,20.49,35.5.24.1.49.14.74.14.69,0,1.36-.36,1.73-1l1-1.72c.15-.27.24-.57.26-.88.05-.66-.24-1.29-.76-1.7ZM24,3.34h2c1.76,12.57,8.29,23.79,18.25,31.62l-1,1.73C30.42,31.62,21.96,16.98,24,3.34Z"/>
      <g id="star">
        <path class="cls-3" d="m20.2,41.85c3.6,3.6,6,3.6,9.6,0-3.6,3.6-3.6,6,0,9.6-3.6-3.6-6-3.6-9.6,0,3.6-3.6,3.6-6,0-9.6Z"/>
        <circle class="cls-6" cx="25" cy="46.65" r="8"/>
      </g>
      <g id="star-2" data-name="star">
        <path class="cls-3" d="m4.49,7.62c1.32,4.92,3.4,6.12,8.31,4.8-4.92,1.32-6.12,3.4-4.8,8.31-1.32-4.92-3.4-6.12-8.31-4.8,4.92-1.32,6.12-3.4,4.8-8.31Z"/>
        <circle class="cls-5" cx="6.25" cy="14.18" r="8"/>
      </g>
    </g>
  </g>
</svg>