<?xml version="1.0" encoding="UTF-8"?>
<svg xmlns="http://www.w3.org/2000/svg" xmlns:xlink="http://www.w3.org/1999/xlink" viewBox="0 0 50 50">
  <defs>
    <style>
      .cls-1, .cls-2 {
        fill: none;
      }

      .cls-3 {
        fill: #fff;
      }

      .cls-4 {
        fill: #022859;
      }

      .cls-5 {
        fill: url(#radial-gradient-3);
      }

      .cls-6 {
        fill: url(#radial-gradient-2);
      }

      .cls-7 {
        fill: url(#radial-gradient);
      }

      .cls-2 {
        clip-path: url(#clippath);
      }
    </style>
    <clipPath id="clippath">
      <polygon id="mask" class="cls-1" points="37.5 3.35 12.5 3.35 0 25 12.5 46.65 37.5 46.65 50 25 37.5 3.35"/>
    </clipPath>
    <radialGradient id="radial-gradient" cx="25" cy="20.02" fx="25" fy="20.02" r="20.01" gradientUnits="userSpaceOnUse">
      <stop offset="0" stop-color="#fff" stop-opacity="0"/>
      <stop offset=".77" stop-color="#fff" stop-opacity=".04"/>
      <stop offset="1" stop-color="#fff" stop-opacity=".05"/>
    </radialGradient>
    <radialGradient id="radial-gradient-2" cx="-315.62" cy="-446.62" fx="-315.62" fy="-446.62" r="8" gradientTransform="translate(-185.23 510.82) rotate(60)" gradientUnits="userSpaceOnUse">
      <stop offset="0" stop-color="#fff" stop-opacity=".15"/>
      <stop offset="1" stop-color="#fff" stop-opacity="0"/>
    </radialGradient>
    <radialGradient id="radial-gradient-3" cx="-296.87" cy="-414.15" fx="-296.87" fy="-414.15" r="8" xlink:href="#radial-gradient-2"/>
  </defs>
  <g id="_212120" data-name="212120">
    <g class="cls-2">
      <path id="stripe" class="cls-4" d="m44.25,34.96l-1,1.73c-9.04-4.54-15.72-13.28-18.22-23.04-2.25,8.98-8.05,17.08-16.06,21.84-.73.42-1.48.82-2.22,1.21l-1-1.73c1.12-.78,2.74-1.99,3.8-2.88,7.27-6.05,12.29-14.68,13.87-24.01.23-1.37.46-3.37.58-4.74h2c.58,12.75,7.52,24.73,18.25,31.62Z"/>
      <path id="glow" class="cls-7" d="m45.33,33.28c-10.14-6.52-16.78-18.02-17.33-30.03-.05-1.07-.93-1.91-2-1.91h-2c-1.04,0-1.9.8-1.99,1.83-.11,1.26-.33,3.22-.57,4.57-1.47,8.76-6.27,17.07-13.17,22.81-1.06.89-2.64,2.06-3.67,2.78-.85.59-1.1,1.74-.58,2.64l1,1.73c.37.64,1.04,1,1.73,1,.32,0,.64-.07.93-.23.92-.48,1.63-.87,2.28-1.24,6.69-3.98,11.98-10.14,15.08-17.39,3.49,8.06,9.68,14.8,17.31,18.64.29.14.59.21.89.21.7,0,1.37-.36,1.74-1l1-1.73c.18-.31.28-.68.27-1.05-.02-.67-.36-1.28-.92-1.63ZM24,3.34h2c.58,12.75,7.52,24.73,18.25,31.62l-1,1.73c-9.04-4.54-15.72-13.28-18.22-23.04-2.25,8.98-8.05,17.08-16.06,21.84-.73.42-1.48.82-2.22,1.21l-1-1.73c1.12-.78,2.74-1.99,3.8-2.88,7.27-6.05,12.29-14.68,13.87-24.01.23-1.37.46-3.37.58-4.74Z"/>
      <g id="star">
        <path class="cls-3" d="m41.99,20.73c1.32-4.92.12-7-4.8-8.31,4.92,1.32,7,.12,8.31-4.8-1.32,4.92-.12,7,4.8,8.31-4.92-1.32-7-.12-8.31,4.8Z"/>
        <circle class="cls-6" cx="43.75" cy="14.17" r="8"/>
      </g>
      <g id="star-2" data-name="star">
        <path class="cls-3" d="m20.2,51.45c3.6-3.6,3.6-6,0-9.6,3.6,3.6,6,3.6,9.6,0-3.6,3.6-3.6,6,0,9.6-3.6-3.6-6-3.6-9.6,0Z"/>
        <circle class="cls-5" cx="25" cy="46.65" r="8"/>
      </g>
    </g>
  </g>
</svg>