<?xml version="1.0" encoding="UTF-8"?>
<svg xmlns="http://www.w3.org/2000/svg" xmlns:xlink="http://www.w3.org/1999/xlink" viewBox="0 0 50 50">
  <defs>
    <style>
      .cls-1, .cls-2 {
        fill: none;
      }

      .cls-3 {
        fill: #022859;
      }

      .cls-4 {
        fill: url(#radial-gradient-2);
      }

      .cls-5 {
        fill: url(#radial-gradient);
      }

      .cls-2 {
        clip-path: url(#clippath);
      }
    </style>
    <clipPath id="clippath">
      <polygon id="mask" class="cls-1" points="12.5 46.65 37.5 46.65 50 25 37.5 3.35 12.5 3.35 0 25 12.5 46.65"/>
    </clipPath>
    <radialGradient id="radial-gradient" cx="34.05" cy="10.48" fx="34.05" fy="10.48" r="10.78" gradientUnits="userSpaceOnUse">
      <stop offset="0" stop-color="#fff" stop-opacity="0"/>
      <stop offset=".77" stop-color="#fff" stop-opacity=".04"/>
      <stop offset="1" stop-color="#fff" stop-opacity=".05"/>
    </radialGradient>
    <radialGradient id="radial-gradient-2" cx="-1085.95" cy="1410.48" fx="-1085.95" fy="1410.48" r="10.78" gradientTransform="translate(-1070 1450) rotate(-180)" xlink:href="#radial-gradient"/>
  </defs>
  <g id="_220220" data-name="220220">
    <g class="cls-2">
      <path id="stripe" class="cls-3" d="m44.25,15.04c-2.09,1.77-4.7,2.58-7.34,2.58-4.8,0-9.7-2.68-11.78-7.13-1.15-2.22-1.53-4.8-1.13-7.15h2c1.11,5.72,5.64,10.31,11.5,10.73.34.03.68.04,1.02.04,1.56,0,3.14-.27,4.73-.8l1,1.73Z"/>
      <path id="stripe-2" data-name="stripe" class="cls-3" d="m5.75,34.96c2.09-1.77,4.7-2.58,7.34-2.58,4.8,0,9.7,2.68,11.78,7.13,1.15,2.22,1.53,4.8,1.13,7.15h-2c-1.11-5.72-5.64-10.31-11.5-10.73-.34-.03-.68-.04-1.02-.04-1.56,0-3.14.27-4.73.8l-1-1.73Z"/>
      <path id="glow" class="cls-5" d="m45.98,14.03l-1-1.73c-.36-.63-1.03-.99-1.73-.99-.21,0-.43.03-.64.1-1.39.47-2.77.7-4.09.7-.29,0-.58-.01-.86-.03-4.74-.35-8.73-4.09-9.7-9.12-.18-.94-1-1.62-1.96-1.62h-2c-.98,0-1.81.71-1.97,1.67-.48,2.83-.02,5.79,1.31,8.36,2.32,4.94,7.77,8.25,13.57,8.25,3.29,0,6.27-1.06,8.63-3.06.74-.62.93-1.69.44-2.53Zm-9.07,3.59c-4.8,0-9.7-2.68-11.78-7.13-1.15-2.22-1.53-4.8-1.13-7.15h2c1.11,5.72,5.64,10.31,11.5,10.73.34.03.68.04,1.02.04,1.56,0,3.14-.27,4.73-.8l1,1.73c-2.09,1.77-4.7,2.58-7.34,2.58Z"/>
      <path id="glow-2" data-name="glow" class="cls-4" d="m4.02,35.97l1,1.73c.36.63,1.03.99,1.73.99.21,0,.43-.03.64-.1,1.39-.47,2.77-.7,4.09-.7.29,0,.58.01.86.03,4.74.35,8.73,4.09,9.7,9.12.18.94,1,1.62,1.96,1.62h2c.98,0,1.81-.71,1.97-1.67.48-2.83.02-5.79-1.31-8.36-2.32-4.94-7.77-8.25-13.57-8.25-3.29,0-6.27,1.06-8.63,3.06-.74.62-.93,1.69-.44,2.53Zm9.07-3.59c4.8,0,9.7,2.68,11.78,7.13,1.15,2.22,1.53,4.8,1.13,7.15h-2c-1.11-5.72-5.64-10.31-11.5-10.73-.34-.03-.68-.04-1.02-.04-1.56,0-3.14.27-4.73.8l-1-1.73c2.09-1.77,4.7-2.58,7.34-2.58Z"/>
    </g>
  </g>
</svg>