<?xml version="1.0" encoding="UTF-8"?>
<svg xmlns="http://www.w3.org/2000/svg" xmlns:xlink="http://www.w3.org/1999/xlink" viewBox="0 0 50 50">
  <defs>
    <style>
      .cls-1, .cls-2 {
        fill: none;
      }

      .cls-3 {
        fill: #fff;
      }

      .cls-4 {
        fill: #022859;
      }

      .cls-5 {
        fill: url(#radial-gradient-2);
      }

      .cls-6 {
        fill: url(#radial-gradient);
      }

      .cls-2 {
        clip-path: url(#clippath);
      }
    </style>
    <clipPath id="clippath">
      <polygon id="mask" class="cls-1" points="37.5 3.35 12.5 3.35 0 25 12.5 46.65 37.5 46.65 50 25 37.5 3.35"/>
    </clipPath>
    <radialGradient id="radial-gradient" cx="25" cy="20.02" fx="25" fy="20.02" r="20.01" gradientUnits="userSpaceOnUse">
      <stop offset="0" stop-color="#fff" stop-opacity="0"/>
      <stop offset=".77" stop-color="#fff" stop-opacity=".04"/>
      <stop offset="1" stop-color="#fff" stop-opacity=".05"/>
    </radialGradient>
    <radialGradient id="radial-gradient-2" cx="-560.62" cy="-194.76" fx="-560.62" fy="-194.76" r="8" gradientTransform="translate(-405.23 423.96) rotate(120)" gradientUnits="userSpaceOnUse">
      <stop offset="0" stop-color="#fff" stop-opacity=".15"/>
      <stop offset="1" stop-color="#fff" stop-opacity="0"/>
    </radialGradient>
  </defs>
  <g id="_221020" data-name="221020">
    <g class="cls-2">
      <path id="stripe" class="cls-4" d="m44.25,15.04c-2.07,1.57-4.56,2.3-7.06,2.3-4.57,0-9.2-2.41-11.49-6.47-1.72,10.94-8.91,21.05-18.95,25.83l-1-1.73c10.61-7.22,17.32-18.82,18.25-31.63h2c.35,3.28,1.9,6.03,4.12,7.97,2.22,1.93,5.11,3.05,8.13,3.05,1.66,0,3.35-.33,5-1.05l1,1.73Z"/>
      <path id="glow" class="cls-6" d="m45.98,14.03l-.99-1.71c-.1-.18-.23-.35-.39-.49-.38-.35-.86-.52-1.35-.52-.27,0-.54.05-.8.16-1.35.59-2.76.89-4.2.89-5.29,0-9.7-3.96-10.26-9.23-.11-1.01-.97-1.79-1.99-1.79h-2c-1.05,0-1.92.81-1.99,1.86-.89,12.23-7.23,23.2-17.39,30.12-.86.58-1.13,1.74-.6,2.65l.99,1.71c.07.13.16.26.27.38.39.42.93.64,1.47.64.29,0,.59-.06.86-.19,9.26-4.41,16.33-13.06,19.16-23.16,2.77,2.5,6.52,3.99,10.42,3.99,3.08,0,5.94-.94,8.27-2.71.81-.61,1.03-1.72.52-2.6Zm-8.79,3.31c-4.57,0-9.2-2.41-11.49-6.47-1.72,10.94-8.91,21.05-18.95,25.83l-1-1.73c10.61-7.22,17.32-18.82,18.25-31.63h2c.35,3.28,1.9,6.03,4.12,7.97,2.22,1.93,5.11,3.05,8.13,3.05,1.66,0,3.35-.33,5-1.05l1,1.73c-2.07,1.57-4.56,2.3-7.06,2.3Z"/>
      <g id="star">
        <path class="cls-3" d="m37.19,37.58c4.92-1.32,6.12-3.4,4.8-8.31,1.32,4.92,3.4,6.12,8.31,4.8-4.92,1.32-6.12,3.4-4.8,8.31-1.32-4.92-3.4-6.12-8.31-4.8Z"/>
        <circle class="cls-5" cx="43.75" cy="35.83" r="8"/>
      </g>
    </g>
  </g>
</svg>