<?xml version="1.0" encoding="UTF-8"?>
<svg xmlns="http://www.w3.org/2000/svg" xmlns:xlink="http://www.w3.org/1999/xlink" viewBox="0 0 50 50">
  <defs>
    <style>
      .cls-1, .cls-2 {
        fill: none;
      }

      .cls-3 {
        fill: #022859;
      }

      .cls-4 {
        fill: url(#radial-gradient);
      }

      .cls-2 {
        clip-path: url(#clippath);
      }
    </style>
    <clipPath id="clippath">
      <polygon id="mask" class="cls-1" points="37.5 3.35 12.5 3.35 0 25 12.5 46.65 37.5 46.65 50 25 37.5 3.35"/>
    </clipPath>
    <radialGradient id="radial-gradient" cx="34.1" cy="20.01" fx="34.1" fy="20.01" r="15.75" gradientUnits="userSpaceOnUse">
      <stop offset="0" stop-color="#fff" stop-opacity="0"/>
      <stop offset=".77" stop-color="#fff" stop-opacity=".04"/>
      <stop offset="1" stop-color="#fff" stop-opacity=".05"/>
    </radialGradient>
  </defs>
  <g id="_222000" data-name="222000">
    <g class="cls-2">
      <path id="stripe" class="cls-3" d="m40.45,32.08c1.06.89,2.67,2.09,3.8,2.88l-1,1.73c-1.3-.62-3.13-1.77-4.36-2.58-8.35-5.92-13.93-15.5-14.83-25.71-.08-1.14-.1-2.28-.09-3.41-.02-.55-.02-1.1.03-1.64h0s2-.01,2-.01c.66,6.53,6.16,11.08,12.19,11.08,1.68,0,3.4-.36,5.06-1.11l1,1.73c-2.07,1.53-4.55,2.25-7.04,2.25-3.35,0-6.72-1.28-9.19-3.55,2.35,7.1,6.61,13.55,12.43,18.34Z"/>
      <path id="glow" class="cls-4" d="m45.39,33.32c-1.04-.73-2.63-1.92-3.66-2.77-3.99-3.29-7.25-7.42-9.61-12.12,1.63.56,3.35.86,5.09.86,3.05,0,5.9-.92,8.23-2.65.82-.6,1.05-1.72.54-2.61l-.99-1.7c-.06-.12-.14-.23-.23-.34-.39-.45-.95-.68-1.51-.68-.28,0-.56.05-.83.18-1.35.61-2.78.93-4.23.93-5.28,0-9.67-3.99-10.2-9.28-.1-1.02-.96-1.8-1.99-1.8h-2c-.99,0-1.83.73-1.98,1.71-.01.05-.01.1-.01.15-.05.58-.07,1.19-.04,1.82,0,1.29.02,2.44.09,3.52.96,10.78,6.82,20.93,15.68,27.2.02.01.03.02.05.03.85.57,3,1.96,4.59,2.72.28.14.57.2.86.2.7,0,1.37-.36,1.74-1q1.27-2.19,1.27-2.73c0-.65-.32-1.27-.86-1.64ZM23.97,4.99c-.02-.55-.02-1.1.03-1.64h0s2-.01,2-.01c.66,6.53,6.16,11.08,12.19,11.08,1.68,0,3.4-.36,5.06-1.11l1,1.73c-2.07,1.53-4.55,2.25-7.04,2.25-3.35,0-6.72-1.28-9.19-3.55,2.35,7.1,6.61,13.55,12.43,18.34,1.06.89,2.67,2.09,3.8,2.88l-1,1.73c-1.3-.62-3.13-1.77-4.36-2.58-8.35-5.92-13.93-15.5-14.83-25.71-.08-1.14-.1-2.28-.09-3.41Z"/>
    </g>
  </g>
</svg>