<?xml version="1.0" encoding="UTF-8"?>
<svg xmlns="http://www.w3.org/2000/svg" xmlns:xlink="http://www.w3.org/1999/xlink" viewBox="0 0 50 50">
  <defs>
    <style>
      .cls-1, .cls-2 {
        fill: none;
      }

      .cls-3 {
        fill: #fff;
      }

      .cls-4 {
        fill: #022859;
      }

      .cls-5 {
        fill: url(#radial-gradient-3);
      }

      .cls-6 {
        fill: url(#radial-gradient-4);
      }

      .cls-7 {
        fill: url(#radial-gradient-2);
      }

      .cls-8 {
        fill: url(#radial-gradient);
      }

      .cls-2 {
        clip-path: url(#clippath);
      }
    </style>
    <clipPath id="clippath">
      <polygon id="mask" class="cls-1" points="37.5 3.35 12.5 3.35 0 25 12.5 46.65 37.5 46.65 50 25 37.5 3.35"/>
    </clipPath>
    <radialGradient id="radial-gradient" cx="34.1" cy="20.01" fx="34.1" fy="20.01" r="15.75" gradientUnits="userSpaceOnUse">
      <stop offset="0" stop-color="#fff" stop-opacity="0"/>
      <stop offset=".77" stop-color="#fff" stop-opacity=".04"/>
      <stop offset="1" stop-color="#fff" stop-opacity=".05"/>
    </radialGradient>
    <radialGradient id="radial-gradient-2" cx="165" cy="143.35" fx="165" fy="143.35" r="8" gradientTransform="translate(190 190) rotate(-180)" gradientUnits="userSpaceOnUse">
      <stop offset="0" stop-color="#fff" stop-opacity=".15"/>
      <stop offset="1" stop-color="#fff" stop-opacity="0"/>
    </radialGradient>
    <radialGradient id="radial-gradient-3" cx="183.75" cy="154.17" fx="183.75" fy="154.17" r="8" xlink:href="#radial-gradient-2"/>
    <radialGradient id="radial-gradient-4" cx="183.75" cy="175.83" fx="183.75" fy="175.83" r="8" xlink:href="#radial-gradient-2"/>
  </defs>
  <g id="_222111" data-name="222111">
    <g class="cls-2">
      <path id="stripe" class="cls-4" d="m40.45,32.08c1.06.89,2.67,2.09,3.8,2.88l-1,1.73c-1.3-.62-3.13-1.77-4.36-2.58-8.35-5.92-13.93-15.5-14.83-25.71-.08-1.14-.1-2.28-.09-3.41-.02-.55-.02-1.1.03-1.64h0s2-.01,2-.01c.66,6.53,6.16,11.08,12.19,11.08,1.68,0,3.4-.36,5.06-1.11l1,1.73c-2.07,1.53-4.55,2.25-7.04,2.25-3.35,0-6.72-1.28-9.19-3.55,2.35,7.1,6.61,13.55,12.43,18.34Z"/>
      <path id="glow" class="cls-8" d="m45.39,33.32c-1.04-.73-2.63-1.92-3.66-2.77-3.99-3.29-7.25-7.42-9.61-12.12,1.63.56,3.35.86,5.09.86,3.05,0,5.9-.92,8.23-2.65.82-.6,1.05-1.72.54-2.61l-.99-1.7c-.06-.12-.14-.23-.23-.34-.39-.45-.95-.68-1.51-.68-.28,0-.56.05-.83.18-1.35.61-2.78.93-4.23.93-5.28,0-9.67-3.99-10.2-9.28-.1-1.02-.96-1.8-1.99-1.8h-2c-.99,0-1.83.73-1.98,1.71-.01.05-.01.1-.01.15-.05.58-.07,1.19-.04,1.82,0,1.29.02,2.44.09,3.52.96,10.78,6.82,20.93,15.68,27.2.02.01.03.02.05.03.85.57,3,1.96,4.59,2.72.28.14.57.2.86.2.7,0,1.37-.36,1.74-1q1.27-2.19,1.27-2.73c0-.65-.32-1.27-.86-1.64ZM23.97,4.99c-.02-.55-.02-1.1.03-1.64h0s2-.01,2-.01c.66,6.53,6.16,11.08,12.19,11.08,1.68,0,3.4-.36,5.06-1.11l1,1.73c-2.07,1.53-4.55,2.25-7.04,2.25-3.35,0-6.72-1.28-9.19-3.55,2.35,7.1,6.61,13.55,12.43,18.34,1.06.89,2.67,2.09,3.8,2.88l-1,1.73c-1.3-.62-3.13-1.77-4.36-2.58-8.35-5.92-13.93-15.5-14.83-25.71-.08-1.14-.1-2.28-.09-3.41Z"/>
      <g id="star">
        <path class="cls-3" d="m20.2,41.85c3.6,3.6,6,3.6,9.6,0-3.6,3.6-3.6,6,0,9.6-3.6-3.6-6-3.6-9.6,0,3.6-3.6,3.6-6,0-9.6Z"/>
        <circle class="cls-7" cx="25" cy="46.65" r="8"/>
      </g>
      <g id="star-2" data-name="star">
        <path class="cls-3" d="m8.01,29.27c-1.32,4.92-.12,7,4.8,8.31-4.92-1.32-7-.12-8.31,4.8,1.32-4.92.12-7-4.8-8.31,4.92,1.32,7,.12,8.31-4.8Z"/>
        <circle class="cls-5" cx="6.25" cy="35.83" r="8"/>
      </g>
      <g id="star-3" data-name="star">
        <path class="cls-3" d="m4.49,7.62c1.32,4.92,3.4,6.12,8.31,4.8-4.92,1.32-6.12,3.4-4.8,8.31-1.32-4.92-3.4-6.12-8.31-4.8,4.92-1.32,6.12-3.4,4.8-8.31Z"/>
        <circle class="cls-6" cx="6.25" cy="14.17" r="8"/>
      </g>
    </g>
  </g>
</svg>