<?xml version="1.0" encoding="UTF-8"?>
<svg xmlns="http://www.w3.org/2000/svg" xmlns:xlink="http://www.w3.org/1999/xlink" viewBox="0 0 50 50">
  <defs>
    <style>
      .cls-1, .cls-2 {
        fill: none;
      }

      .cls-3 {
        fill: #fff;
      }

      .cls-4 {
        fill: #022859;
      }

      .cls-5 {
        fill: url(#radial-gradient-3);
      }

      .cls-6 {
        fill: url(#radial-gradient-2);
      }

      .cls-7 {
        fill: url(#radial-gradient);
      }

      .cls-2 {
        clip-path: url(#clippath);
      }
    </style>
    <clipPath id="clippath">
      <polygon id="mask" class="cls-1" points="37.5 46.65 50 25 37.5 3.35 12.5 3.35 0 25 12.5 46.65 37.5 46.65"/>
    </clipPath>
    <radialGradient id="radial-gradient" cx="519.02" cy="290.48" fx="519.02" fy="290.48" r="10.78" gradientTransform="translate(-484.97 -280)" gradientUnits="userSpaceOnUse">
      <stop offset="0" stop-color="#fff" stop-opacity="0"/>
      <stop offset=".77" stop-color="#fff" stop-opacity=".04"/>
      <stop offset="1" stop-color="#fff" stop-opacity=".05"/>
    </radialGradient>
    <radialGradient id="radial-gradient-2" cx="-450.93" cy="290.48" fx="-450.93" fy="290.48" r="10.78" gradientTransform="translate(59.15 575.85) rotate(120)" xlink:href="#radial-gradient"/>
    <radialGradient id="radial-gradient-3" cx="146.24" cy="213.35" fx="146.24" fy="213.35" r="8" gradientTransform="translate(-251.64 34.15) rotate(-60)" gradientUnits="userSpaceOnUse">
      <stop offset="0" stop-color="#fff" stop-opacity=".15"/>
      <stop offset="1" stop-color="#fff" stop-opacity="0"/>
    </radialGradient>
  </defs>
  <g id="_222201" data-name="222201">
    <g class="cls-2">
      <path id="stripe" class="cls-4" d="m44.25,15.04c-2.09,1.77-4.7,2.58-7.34,2.58-4.8,0-9.7-2.68-11.78-7.13-1.15-2.22-1.53-4.8-1.13-7.15h2c1.11,5.72,5.64,10.31,11.5,10.73.34.03.68.04,1.02.04,1.56,0,3.14-.27,4.73-.8l1,1.73Z"/>
      <path id="stripe-2" data-name="stripe" class="cls-4" d="m24,46.65c-.49-2.7.12-5.36,1.44-7.65,2.4-4.16,7.17-7.06,12.06-6.64,2.5.11,4.92,1.07,6.76,2.6l-1,1.73c-5.51-1.9-11.75-.27-15.04,4.59-.2.28-.37.57-.54.86-.78,1.35-1.34,2.85-1.67,4.5h-2Z"/>
      <path id="glow" class="cls-7" d="m45.98,14.03l-1-1.73c-.36-.63-1.03-.99-1.73-.99-.21,0-.43.03-.64.1-1.39.47-2.77.7-4.09.7-.29,0-.58-.01-.86-.03-4.74-.35-8.73-4.09-9.7-9.12-.18-.94-1-1.62-1.96-1.62h-2c-.98,0-1.81.71-1.97,1.67-.48,2.83-.02,5.79,1.31,8.36,2.32,4.94,7.77,8.25,13.57,8.25,3.29,0,6.27-1.06,8.63-3.06.74-.62.93-1.69.44-2.53Zm-9.07,3.59c-4.8,0-9.7-2.68-11.78-7.13-1.15-2.22-1.53-4.8-1.13-7.15h2c1.11,5.72,5.64,10.31,11.5,10.73.34.03.68.04,1.02.04,1.56,0,3.14-.27,4.73-.8l1,1.73c-2.09,1.77-4.7,2.58-7.34,2.58Z"/>
      <path id="glow-2" data-name="glow" class="cls-6" d="m24.01,48.65h2c.73,0,1.37-.4,1.72-1,.11-.18.19-.39.23-.6.29-1.44.78-2.75,1.44-3.89.15-.25.3-.5.46-.73,2.67-3.93,7.91-5.52,12.75-3.84.9.31,1.9-.06,2.38-.89l1-1.73c.49-.85.29-1.92-.46-2.54-2.21-1.83-5-2.91-7.89-3.05-5.44-.46-11.03,2.6-13.93,7.63-1.65,2.85-2.22,5.96-1.66,9,.17.95,1,1.65,1.97,1.65Zm1.43-9.65c2.4-4.16,7.17-7.06,12.06-6.64,2.5.11,4.92,1.07,6.76,2.6l-1,1.73c-5.51-1.9-11.75-.27-15.04,4.59-.2.28-.37.57-.54.86-.78,1.35-1.34,2.85-1.67,4.5h-2c-.49-2.69.12-5.36,1.44-7.65Z"/>
      <g id="star">
        <path class="cls-3" d="m12.81,12.42c-4.92,1.32-6.12,3.4-4.8,8.31-1.32-4.92-3.4-6.12-8.31-4.8,4.92-1.32,6.12-3.4,4.8-8.31,1.32,4.92,3.4,6.12,8.31,4.8Z"/>
        <circle class="cls-5" cx="6.25" cy="14.17" r="8"/>
      </g>
    </g>
  </g>
</svg>