<?xml version="1.0" encoding="UTF-8"?>
<svg xmlns="http://www.w3.org/2000/svg" xmlns:xlink="http://www.w3.org/1999/xlink" viewBox="0 0 50 50">
  <defs>
    <style>
      .cls-1, .cls-2 {
        fill: none;
      }

      .cls-3 {
        fill: #022859;
      }

      .cls-4 {
        fill: url(#radial-gradient-3);
      }

      .cls-5 {
        fill: url(#radial-gradient-2);
      }

      .cls-6 {
        fill: url(#radial-gradient);
      }

      .cls-2 {
        clip-path: url(#clippath);
      }
    </style>
    <clipPath id="clippath">
      <polygon id="mask" class="cls-1" points="50 25 37.5 3.35 12.5 3.35 0 25 12.5 46.65 37.5 46.65 50 25"/>
    </clipPath>
    <radialGradient id="radial-gradient" cx="-1365.95" cy="1690.48" fx="-1365.95" fy="1690.48" r="10.78" gradientTransform="translate(-1350 1730) rotate(-180)" gradientUnits="userSpaceOnUse">
      <stop offset="0" stop-color="#fff" stop-opacity="0"/>
      <stop offset=".77" stop-color="#fff" stop-opacity=".04"/>
      <stop offset="1" stop-color="#fff" stop-opacity=".05"/>
    </radialGradient>
    <radialGradient id="radial-gradient-2" cx="169.02" cy="896.7" fx="169.02" fy="896.7" r="10.78" gradientTransform="translate(-844.12 -292.07) rotate(-60)" xlink:href="#radial-gradient"/>
    <radialGradient id="radial-gradient-3" cx="-800.93" cy="-315.74" fx="-800.93" fy="-315.74" r="10.78" gradientTransform="translate(169.12 877.07) rotate(60)" xlink:href="#radial-gradient"/>
  </defs>
  <g id="_222222" data-name="222222">
    <g class="cls-2">
      <path id="stripe" class="cls-3" d="m26,3.35c.49,2.7-.12,5.36-1.44,7.65-2.4,4.16-7.17,7.06-12.06,6.64-2.5-.11-4.92-1.07-6.76-2.6l1-1.73c5.51,1.9,11.75.27,15.04-4.59.2-.28.37-.57.54-.86.78-1.35,1.34-2.85,1.67-4.5h2Z"/>
      <path id="stripe-2" data-name="stripe" class="cls-3" d="m43.25,36.69c-2.58-.93-4.58-2.78-5.9-5.07-2.4-4.16-2.53-9.74.28-13.77,1.35-2.11,3.39-3.73,5.63-4.55l1,1.73c-4.4,3.82-6.11,10.04-3.54,15.32.14.31.31.61.48.9.78,1.35,1.8,2.58,3.06,3.7l-1,1.73Z"/>
      <path id="stripe-3" data-name="stripe" class="cls-3" d="m5.75,34.96c2.09-1.77,4.7-2.58,7.34-2.58,4.8,0,9.7,2.68,11.78,7.13,1.15,2.22,1.53,4.8,1.13,7.15h-2c-1.11-5.72-5.64-10.31-11.5-10.73-.34-.03-.68-.04-1.02-.04-1.56,0-3.14.27-4.73.8l-1-1.73Z"/>
      <path id="glow" class="cls-6" d="m4.02,35.97l1,1.73c.36.63,1.03.99,1.73.99.21,0,.43-.03.64-.1,1.39-.47,2.77-.7,4.09-.7.29,0,.58.01.86.03,4.74.35,8.73,4.09,9.7,9.12.18.94,1,1.62,1.96,1.62h2c.98,0,1.81-.71,1.97-1.67.48-2.83.02-5.79-1.31-8.36-2.32-4.94-7.77-8.25-13.57-8.25-3.29,0-6.27,1.06-8.63,3.06-.74.62-.93,1.69-.44,2.53Zm9.07-3.59c4.8,0,9.7,2.68,11.78,7.13,1.15,2.22,1.53,4.8,1.13,7.15h-2c-1.11-5.72-5.64-10.31-11.5-10.73-.34-.03-.68-.04-1.02-.04-1.56,0-3.14.27-4.73.8l-1-1.73c2.09-1.77,4.7-2.58,7.34-2.58Z"/>
      <path id="glow-2" data-name="glow" class="cls-5" d="m25.99,1.35h-2c-.73,0-1.37.4-1.72,1-.11.18-.19.39-.23.6-.29,1.44-.78,2.75-1.44,3.89-.15.25-.3.5-.46.73-2.67,3.93-7.91,5.52-12.75,3.84-.9-.31-1.9.06-2.38.89l-1,1.73c-.49.85-.29,1.92.46,2.54,2.21,1.83,5,2.91,7.89,3.05,5.44.46,11.03-2.6,13.93-7.63,1.65-2.85,2.22-5.96,1.66-9-.17-.95-1-1.65-1.97-1.65Zm-1.43,9.65c-2.4,4.16-7.17,7.06-12.06,6.64-2.5-.11-4.92-1.07-6.76-2.6l1-1.73c5.51,1.9,11.75.27,15.04-4.59.2-.28.37-.57.54-.86.78-1.35,1.34-2.85,1.67-4.5h2c.49,2.69-.12,5.36-1.44,7.65Z"/>
      <path id="glow-3" data-name="glow" class="cls-4" d="m44.99,37.68l1-1.73c.37-.63.34-1.39,0-1.99-.11-.18-.24-.36-.41-.5-1.1-.97-1.99-2.05-2.65-3.19-.15-.25-.28-.51-.4-.76-2.07-4.28-.82-9.61,3.05-12.96.72-.63.9-1.68.42-2.51l-1-1.73c-.49-.85-1.52-1.21-2.43-.87-2.69,1-5.02,2.88-6.58,5.31-3.12,4.48-3.26,10.85-.36,15.88,1.65,2.85,4.05,4.9,6.97,5.94.91.33,1.93-.04,2.41-.88Zm-7.64-6.06c-2.4-4.16-2.53-9.74.28-13.77,1.35-2.11,3.39-3.73,5.63-4.55l1,1.73c-4.4,3.82-6.11,10.04-3.54,15.32.14.31.31.61.48.9.78,1.35,1.8,2.58,3.06,3.7l-1,1.73c-2.58-.93-4.58-2.78-5.9-5.07Z"/>
    </g>
  </g>
</svg>