<?xml version="1.0" encoding="UTF-8"?>
<svg xmlns="http://www.w3.org/2000/svg" viewBox="0 0 50 50">
  <defs>
    <style>
      .cls-1 {
        opacity: .25;
      }

      .cls-2 {
        fill: #fff;
        stroke-width: 0px;
      }
    </style>
  </defs>
  <g class="cls-1">
    <path class="cls-2" d="M25,0C11.19,0,0,11.19,0,25s11.19,25,25,25,25-11.19,25-25S38.81,0,25,0ZM24.12,37.5c-2.74,0-3.96-1.62-3.96-3.34s1.18-3.34,3.96-3.34,3.9,1.71,3.9,3.34-1.16,3.34-3.9,3.34ZM27.74,27.17c-.4,1.45-2.39,1.94-3.65,1.94-2.73,0-4.09-.95-4.09-2.87,0-3.18,5.42-4.14,5.42-6.25,0-.41-.5-1.3-1.49-1.3-1.22,0-1.67.75-2.01,1.17-.34.43-.97,1.21-2.78,1.21-1.46,0-3.07-.99-3.07-2.97,0-2.11,2.42-5.6,8.82-5.6,4.46,0,9.04,2.49,9.04,6.99,0,5.06-5.55,5.35-6.19,7.68Z"/>
  </g>
  <path class="cls-2" d="M24.89,12.5c-6.4,0-8.82,3.49-8.82,5.6,0,1.98,1.61,2.97,3.07,2.97,1.81,0,2.44-.78,2.78-1.21.34-.42.79-1.17,2.01-1.17.99,0,1.49.89,1.49,1.3,0,2.11-5.42,3.07-5.42,6.25,0,1.92,1.36,2.87,4.09,2.87,1.26,0,3.25-.49,3.65-1.94.64-2.33,6.19-2.62,6.19-7.68,0-4.5-4.58-6.99-9.04-6.99ZM24.12,30.82c-2.78,0-3.96,1.62-3.96,3.34s1.22,3.34,3.96,3.34,3.9-1.71,3.9-3.34-1.12-3.34-3.9-3.34Z"/>
</svg>