<?xml version="1.0" encoding="UTF-8"?>
<svg xmlns="http://www.w3.org/2000/svg" viewBox="0 0 50 50">
  <defs>
    <style>
      .cls-1 {
        opacity: .25;
      }

      .cls-2 {
        fill: #fff;
        stroke-width: 0px;
      }
    </style>
  </defs>
  <g class="cls-1">
    <path class="cls-2" d="M25,0C11.19,0,0,11.19,0,25s11.19,25,25,25,25-11.19,25-25S38.81,0,25,0ZM24.77,12.5c2.06,0,3.75,1.68,3.75,3.75s-1.69,3.75-3.75,3.75-3.75-1.68-3.75-3.75,1.68-3.75,3.75-3.75ZM30.83,36.04c0,.81-.65,1.46-1.45,1.46h-8.75c-.81,0-1.46-.65-1.46-1.46v-2.92c0-.8.65-1.45,1.46-1.45h.62v-5h-.21c-.8,0-1.46-.66-1.46-1.46v-2.92c0-.8.66-1.46,1.46-1.46h6.25c.81,0,1.46.66,1.46,1.46v9.38h.63c.8,0,1.45.65,1.45,1.45v2.92Z"/>
  </g>
  <g>
    <path class="cls-2" d="M30.83,33.12v2.92c0,.81-.65,1.46-1.45,1.46h-8.75c-.81,0-1.46-.65-1.46-1.46v-2.92c0-.8.65-1.45,1.46-1.45h.62v-5h-.21c-.8,0-1.46-.66-1.46-1.46v-2.92c0-.8.66-1.46,1.46-1.46h6.25c.81,0,1.46.66,1.46,1.46v9.38h.63c.8,0,1.45.65,1.45,1.45Z"/>
    <circle class="cls-2" cx="24.77" cy="16.25" r="3.75"/>
  </g>
</svg>