<?xml version="1.0" encoding="UTF-8"?>
<svg xmlns="http://www.w3.org/2000/svg" viewBox="0 0 50 50">
  <defs>
    <style>
      .cls-1 {
        fill: #fff;
      }
    </style>
  </defs>
  <path class="cls-1" d="m22.77,27.18c6.09-3.9,10.11-8.44,11.19-13.1,1.22-5.31-1.35-9.19-1.45-9.35-.63-.91-.42-2.16.48-2.81.9-.66,2.15-.47,2.82.41.34.45,8.38,11.15,6.05,22.77-1.2,6-5.3,11.29-11.44,15.32l-7.65-13.24h0Z"/>
  <path class="cls-1" d="m7.88,42.81l8.55-20.49c.3-.72.98-1.2,1.75-1.25s1.51.34,1.9,1.02l13.47,23.33c.39.67.36,1.51-.07,2.15-.18.27-.41.48-.68.64-.38.22-.83.32-1.28.26l-22.02-2.84c-.63-.08-1.19-.45-1.51-1s-.36-1.22-.12-1.81Z"/>
</svg>