<?xml version="1.0" encoding="UTF-8"?>
<svg xmlns="http://www.w3.org/2000/svg" viewBox="0 0 50 50">
  <defs>
    <style>
      .cls-1 {
        fill: #fff;
        stroke-width: 0px;
      }
    </style>
  </defs>
  <path class="cls-1" d="m24.64,26.49c2.77-6.68,6.54-11.44,10.94-13.31,5.01-2.13,9.29-.28,9.46-.21,1.01.46,2.2.04,2.69-.96.49-1,.08-2.2-.9-2.71-.5-.26-12.44-6.3-23.48-1.97-5.7,2.23-10.18,7.2-13.08,13.94l14.38,5.21h0Z"/>
  <path class="cls-1" d="m11.87,43.89l18.67-12.01c.65-.42,1.01-1.17.92-1.94s-.6-1.43-1.33-1.69L4.81,19.07c-.73-.26-1.55-.09-2.11.45-.23.22-.4.49-.51.78-.15.41-.17.87-.03,1.31l6.65,21.18c.19.61.65,1.09,1.25,1.31s1.26.14,1.8-.2Z"/>
</svg>